<?xml version="1.0"?>
<svg xmlns="http://www.w3.org/2000/svg" height="512px" viewBox="0 -21 511.99983 511" width="512px"><path d="m80.457031 188.097656 49.929688-99.222656 44.316406 98.226562 86.570313-.011718 28.476562 73.507812 66.183594-176.882812 45.511718 104.585937 106.234376-.03125c9.476562-39.285156 3.355468-79.550781-18.328126-114.96875-36.535156-59.675781-87.457031-72.523437-123.746093-72.796875-30.929688-.234375-61.605469 8.652344-88.578125 25.667969l-21.027344 13.171875-20.988281-13.148438c-27.011719-17.039062-57.632813-25.929687-88.621094-25.691406-36.285156.273438-87.207031 13.121094-123.742187 72.796875-21.652344 35.367188-27.789063 75.570313-18.371094 114.796875zm0 0" fill="#6e2912"/><path d="m381.789062 218.300781-23.761718-54.601562-67.789063 181.191406-49.511719-127.804687-85.394531.015624-26.421875-58.566406-29.96875 59.558594h-84.292968c1.796874 3.949219 3.738281 7.878906 5.867187 11.769531 21.734375 39.742188 55.449219 71.464844 88.054687 102.144531 5.742188 5.402344 11.167969 10.507813 16.566407 15.6875 20.222656 19.417969 40.703125 38.144532 60.507812 56.253907 19.671875 17.984375 40.011719 36.582031 59.96875 55.742187l10.386719 9.972656 10.386719-9.972656c19.957031-19.164062 40.296875-37.757812 59.96875-55.742187 19.804687-18.109375 40.285156-36.835938 60.507812-56.253907 5.394531-5.179687 10.820313-10.285156 16.5625-15.6875 32.605469-30.679687 66.320313-62.402343 88.058594-102.144531 2.097656-3.835937 4.011719-7.707031 5.789063-11.597656zm0 0" fill="#6e2912"/></svg>
